<svg width="28" height="28" viewBox="0 0 28 28" fill="none" xmlns="http://www.w3.org/2000/svg">
<path d="M3.11926 12.2667H9.14247C11.7119 7.46597 14.2979 4.66015 18.1064 1.74459C18.6618 1.31939 19.452 1.41315 19.9046 1.94642L24.2745 7.09441C24.8279 7.74634 24.6292 8.73813 23.9036 9.19062C23.1079 9.68677 22.3949 10.2191 21.7342 10.8341L24.8698 14.0358C25.3361 14.5119 25.3793 15.2591 24.971 15.7857L21.6519 20.0667H26.3333C26.7015 20.0667 27 20.3651 27 20.7333V26.3333C27 26.7015 26.7015 27 26.3333 27H3.97046C3.60227 27 3.3038 26.7015 3.3038 26.3333V20.0667C3.3038 20.0667 1 20.0667 1 16.6C1 13.3261 2.39154 12.4952 2.83834 12.3127C2.92731 12.2764 3.02316 12.2667 3.11926 12.2667Z" fill="white"/>
<path d="M9.22785 12.2667H3.11926C3.02316 12.2667 2.92731 12.2764 2.83834 12.3127C2.39154 12.4952 1 13.3261 1 16.6C1 20.0667 3.3038 20.0667 3.3038 20.0667M3.3038 20.0667H5.6076M3.3038 20.0667V26.3333C3.3038 26.7015 3.60227 27 3.97046 27H26.3333C26.7015 27 27 26.7015 27 26.3333V20.7333C27 20.3651 26.7015 20.0667 26.3333 20.0667H21.6519M5.6076 20.0667C9.64848 9.94681 12.5995 5.96042 18.1064 1.74459C18.6618 1.31939 19.452 1.41315 19.9046 1.94642L24.2745 7.09441C24.8279 7.74634 24.6292 8.73813 23.9036 9.19062C23.1079 9.68677 22.3949 10.2191 21.7342 10.8341M5.6076 20.0667H16.3038M16.3038 20.0667C18.1951 15.3482 19.7213 12.7078 21.7342 10.8341M16.3038 20.0667H21.6519M21.7342 10.8341L24.8698 14.0358C25.3361 14.5119 25.3793 15.2591 24.971 15.7857L21.6519 20.0667" stroke="#16427A" stroke-width="1.4"/>
</svg>
